 <svg  version="1.0" xmlns="http://www.w3.org/2000/svg"  viewBox="0 0 300.000000 300.000000"  preserveAspectRatio="xMidYMid meet">  <g transform="translate(0.000000,300.000000) scale(0.100000,-0.100000)" fill="#121111" stroke="none"> <path d="M620 1855 l0 -45 99 0 c110 0 135 -11 129 -59 -5 -40 -40 -52 -141 -49 l-87 3 0 -142 0 -143 45 0 45 0 0 100 0 100 61 0 c36 0 75 7 96 17 68 32 92 115 56 190 -25 54 -75 73 -200 73 l-103 0 0 -45z m265 -46 c8 -15 15 -41 15 -57 0 -34 -34 -82 -57 -82 -14 0 -13 4 4 23 46 50 49 93 9 126 -20 17 -21 32 -1 24 9 -3 22 -18 30 -34z m-187 -176 c-15 -16 -28 -43 -31 -63 -2 -22 -4 -12 -5 28 l-2 62 32 0 32 0 -26 -27z"/> <path d="M1012 1699 l3 -201 -27 4 c-27 4 -28 3 -28 -39 l0 -43 100 0 100 0 0 40 c0 37 -2 40 -27 40 l-28 0 3 200 4 200 -52 0 -52 0 4 -201z m69 -196 c7 -16 15 -31 17 -35 2 -5 -15 -8 -38 -8 -23 0 -40 3 -38 8 23 47 32 62 38 62 4 0 13 -12 21 -27z"/> <path d="M1170 1860 l0 -40 145 0 145 0 0 40 0 40 -145 0 -145 0 0 -40z"/> <path d="M1567 1672 c-48 -125 -90 -233 -94 -239 -4 -10 8 -13 44 -13 l50 0 44 135 c24 74 46 134 49 135 3 0 25 -60 50 -133 l46 -132 48 -3 c37 -2 47 0 44 10 -3 7 -45 115 -93 241 -49 125 -91 227 -94 227 -3 0 -46 -103 -94 -228z m133 30 c0 -10 -5 -10 -21 -2 -15 9 -24 8 -35 -1 -21 -17 -26 -7 -13 32 21 61 32 66 51 23 10 -22 18 -45 18 -52z"/> <path d="M1870 1660 l0 -240 45 0 45 0 0 129 c0 119 -8 159 -25 130 -4 -6 -10 -52 -15 -102 -6 -82 -7 -73 -9 90 0 100 3 184 8 187 13 9 27 -12 82 -124 49 -101 61 -144 21 -76 -11 19 -30 39 -41 45 -20 11 -20 11 -2 -31 10 -24 40 -85 67 -136 l49 -92 41 0 41 0 61 128 61 127 0 -77 1 -78 45 0 45 0 0 180 0 180 -45 0 -46 0 -59 -127 c-33 -71 -70 -150 -83 -178 l-24 -49 -86 177 -86 177 -45 0 -46 0 0 -240z m478 64 c-3 -88 -6 -111 -12 -87 -10 37 -40 68 -56 58 -6 -4 -25 -25 -41 -47 -16 -23 -29 -38 -29 -33 0 13 93 210 109 228 25 30 32 4 29 -119z m-273 -144 c23 -44 55 -57 89 -35 l27 18 -17 -36 c-17 -36 -38 -52 -55 -41 -11 6 -72 124 -64 124 2 0 12 -14 20 -30z"/> <path d="M1270 1575 l0 -155 45 0 45 0 0 155 0 155 -45 0 -45 0 0 -155z"/> </g> </svg> 